<svg width="412" height="271" viewBox="0 0 412 271" fill="none" xmlns="http://www.w3.org/2000/svg">
<path d="M202.8 0.212891L229.108 40.6496L273.215 8.37386L277.081 52.0943L335.508 31.8724L316.466 73.6032L382.167 67.8743L342.513 102.582L407.562 112.037L352.08 135.536L408.632 159.034L344.013 168.489L385.247 203.197L319.285 197.468L340.228 239.199L280.879 218.977L279.004 262.698L233.427 230.422L208.96 270.859L182.653 230.422L138.545 262.698L134.68 218.977L76.2516 239.199L95.2941 197.468L29.5932 203.197L69.2472 168.489L4.19767 159.034L59.6802 135.536L3.12793 112.037L67.747 102.582L26.5131 67.8743L92.4747 73.6032L71.5324 31.8724L130.881 52.0943L132.757 8.37386L178.333 40.6496L202.8 0.212891Z" fill="#FED510"/>
<path fill-rule="evenodd" clip-rule="evenodd" d="M202.8 0.212891L178.333 40.6496L132.757 8.37386L130.881 52.0943L71.5324 31.8724L92.4747 73.6032L26.5131 67.8743L67.747 102.582L3.12793 112.037L59.6802 135.536L4.19769 159.034L69.2472 168.489L29.5932 203.197L95.2941 197.468L76.2516 239.199L134.68 218.977L138.545 262.698L182.653 230.422L208.96 270.859L233.427 230.422L279.004 262.698L280.879 218.977L340.228 239.199L319.285 197.468L385.247 203.197L344.013 168.489L408.632 159.034L352.08 135.536L407.562 112.037L342.513 102.582L382.167 67.8743L316.466 73.6032L335.508 31.8724L277.081 52.0943L273.215 8.37387L229.108 40.6496L202.8 0.212891ZM228.86 42.0834L202.843 2.09344L178.646 42.0834L133.679 10.2389L131.824 53.4646L73.5049 33.5934L94.1595 74.7511L29.5518 69.1398L70.0809 103.254L6.8436 112.507L62.2647 135.536L7.89197 158.564L71.5505 167.817L32.5743 201.932L96.9267 196.32L78.1457 237.478L135.561 217.607L139.383 260.833L182.901 228.988L208.918 268.978L233.114 228.988L278.082 260.833L279.936 217.607L338.255 237.478L317.6 196.32L382.208 201.932L341.679 167.817L404.916 158.564L349.495 135.536L403.868 112.507L340.209 103.254L379.186 69.1398L314.833 74.7511L333.614 33.5934L276.2 53.4646L272.378 10.2389L228.86 42.0834Z" fill="black"/>
<path d="M138.109 154.102C136.651 157.565 134.984 160.378 133.109 162.539C131.234 164.701 129.229 165.781 127.094 165.781C125.896 165.781 124.594 165.417 123.188 164.688C121.807 163.958 120.57 163.021 119.477 161.875C119.398 161.797 119.151 161.549 118.734 161.133C118.318 160.69 117.992 160.156 117.758 159.531C117.523 158.906 117.406 158.177 117.406 157.344C117.406 156.927 117.419 156.602 117.445 156.367C117.549 155.195 117.758 152.135 118.07 147.188L118.188 145.664L117.992 145.586C116.56 149.388 114.906 153.19 113.031 156.992C111.156 160.794 109.398 163.398 107.758 164.805C107.003 165.456 106.234 165.781 105.453 165.781C104.854 165.781 104.242 165.612 103.617 165.273C103.018 164.961 102.237 164.466 101.273 163.789C100.831 163.477 100.258 163.125 99.5547 162.734C98.4349 162.109 97.5755 161.549 96.9766 161.055C96.4036 160.534 96.1042 159.935 96.0781 159.258L96.0391 156.016C95.987 152.24 95.8958 149.115 95.7656 146.641C95.6615 144.141 95.4141 141.445 95.0234 138.555C94.6328 135.638 94.0339 132.799 93.2266 130.039C92.9141 128.971 92.7578 128.255 92.7578 127.891C92.7578 127.578 92.8229 127.266 92.9531 126.953C93.1094 126.641 93.3698 126.237 93.7344 125.742C95.1406 123.893 96.8073 122.409 98.7344 121.289C100.661 120.143 102.419 119.336 104.008 118.867C105.596 118.398 106.872 118.099 107.836 117.969C109.685 119.245 111.286 120.794 112.641 122.617C114.021 124.414 115.557 126.719 117.25 129.531L117.445 129.453C117.211 126.484 116.781 122.656 116.156 117.969C115.557 113.255 115.206 110.482 115.102 109.648C114.685 106.471 114.451 104.622 114.398 104.102C114.867 103.529 115.844 103.034 117.328 102.617C118.839 102.201 120.505 101.992 122.328 101.992C124.307 101.992 126.208 102.279 128.031 102.852C129.854 103.398 131.417 104.271 132.719 105.469C132.745 105.599 132.758 106.029 132.758 106.758C132.758 109.466 132.549 113.945 132.133 120.195C131.742 126.445 131.182 132.682 130.453 138.906C129.75 145.13 128.93 149.818 127.992 152.969L134.672 149.375L138.109 154.102ZM108.969 151.758C110.219 150.508 111.677 148.411 113.344 145.469C115.036 142.5 116.365 139.974 117.328 137.891L117.406 136.953L117.367 134.766C116.352 134.505 114.685 134.141 112.367 133.672L109.125 132.969L109.203 137.148C109.281 141.445 108.812 146.133 107.797 151.211L108.969 151.758ZM184.789 154.141C183.279 157.604 181.56 160.417 179.633 162.578C177.732 164.74 175.714 165.82 173.578 165.82C172.38 165.82 171.091 165.456 169.711 164.727C168.331 163.997 167.107 163.06 166.039 161.914C165.935 161.81 165.688 161.549 165.297 161.133C164.906 160.716 164.594 160.208 164.359 159.609C164.151 159.01 164.047 158.307 164.047 157.5C164.047 157.031 164.06 156.667 164.086 156.406C164.451 152.786 164.893 149.284 165.414 145.898L164.828 145.625C160.74 156.094 157.354 162.5 154.672 164.844C153.865 165.469 153.083 165.781 152.328 165.781C151.703 165.781 151.078 165.612 150.453 165.273C149.828 164.961 149.06 164.479 148.148 163.828C147.81 163.594 147.224 163.242 146.391 162.773C145.245 162.122 144.385 161.549 143.812 161.055C143.266 160.56 142.979 159.974 142.953 159.297C142.953 158.568 142.966 157.917 142.992 157.344C143.044 155.677 143.07 154.323 143.07 153.281C143.07 149.87 142.797 145.898 142.25 141.367C141.729 136.81 141.013 133.047 140.102 130.078C139.789 129.01 139.633 128.294 139.633 127.93C139.633 127.617 139.698 127.305 139.828 126.992C139.984 126.68 140.245 126.276 140.609 125.781C142.042 123.932 143.721 122.448 145.648 121.328C147.576 120.182 149.333 119.375 150.922 118.906C152.51 118.438 153.786 118.138 154.75 118.008C156.651 119.31 158.37 120.951 159.906 122.93C161.443 124.883 162.927 127.096 164.359 129.57C164.333 127.982 164.255 125.651 164.125 122.578L164.047 119.961C164.49 119.674 165.336 119.427 166.586 119.219C167.836 118.984 169.177 118.867 170.609 118.867C172.979 118.867 175.023 119.245 176.742 120C178.487 120.755 180.049 121.953 181.43 123.594C181.534 124.479 181.273 126.784 180.648 130.508C180.023 134.206 179.177 138.177 178.109 142.422C177.042 146.667 175.909 150.195 174.711 153.008L181.469 149.414L184.789 154.141ZM155.883 151.797C157.133 150.547 158.591 148.464 160.258 145.547C161.951 142.63 163.305 140.091 164.32 137.93C164.372 137.305 164.398 136.953 164.398 136.875V134.805C162.94 134.466 161.26 134.102 159.359 133.711L156.039 133.008L156.078 137.188V138.477C156.078 142.435 155.622 146.693 154.711 151.25L155.883 151.797ZM188.93 159.609C188.565 159.193 188.279 158.763 188.07 158.32C187.888 157.852 187.797 157.292 187.797 156.641C187.797 156.406 187.849 155.951 187.953 155.273L190.648 141.328C189.919 137.552 189.203 133.138 188.5 128.086C187.823 123.008 187.263 118.451 186.82 114.414C186.378 110.352 186.195 108.125 186.273 107.734C187.549 106.12 189.359 104.766 191.703 103.672C194.073 102.552 196.417 101.992 198.734 101.992C201.13 101.992 203.07 102.604 204.555 103.828C204.346 109.922 203.956 116.602 203.383 123.867C202.836 131.133 201.977 140.755 200.805 152.734L206.391 150.117L209.516 155.078C208.995 156.693 208.174 158.333 207.055 160C205.935 161.641 204.633 163.021 203.148 164.141C201.664 165.234 200.154 165.781 198.617 165.781C197.003 165.781 195.336 165.169 193.617 163.945C191.898 162.721 190.336 161.276 188.93 159.609ZM227.719 153.906C228.5 153.75 229.464 153.398 230.609 152.852C231.781 152.305 233.409 151.497 235.492 150.43C237.107 149.57 238.76 148.724 240.453 147.891L243.773 153.32C242.628 154.857 240.883 156.615 238.539 158.594C236.221 160.547 233.721 162.24 231.039 163.672C228.383 165.078 225.974 165.781 223.812 165.781C223.135 165.781 222.471 165.599 221.82 165.234C221.169 164.896 220.453 164.323 219.672 163.516C218.995 162.839 218.487 162.357 218.148 162.07C217.602 161.576 217.081 161.146 216.586 160.781C216.117 160.391 215.818 160.143 215.688 160.039C214.88 159.31 214.32 158.646 214.008 158.047C213.721 157.422 213.578 156.758 213.578 156.055C213.578 155.586 213.617 155.065 213.695 154.492C213.799 153.503 213.852 152.604 213.852 151.797C213.852 148.151 213.591 144.245 213.07 140.078C212.576 135.911 212.055 132.917 211.508 131.094C211.195 130.026 211.039 129.323 211.039 128.984C211.039 127.943 211.807 126.693 213.344 125.234C214.906 123.776 216.417 122.591 217.875 121.68C219.307 120.794 221.013 119.961 222.992 119.18C224.971 118.372 226.612 117.969 227.914 117.969C228.826 118.021 229.841 118.411 230.961 119.141C233.461 120.833 235.414 122.031 236.82 122.734C238.253 123.411 239.997 124.115 242.055 124.844L243.148 125.234C243.461 125.365 243.682 125.495 243.812 125.625C243.943 125.755 244.06 126.003 244.164 126.367C244.294 126.706 244.424 127.266 244.555 128.047C244.711 128.984 244.789 129.987 244.789 131.055C244.789 133.138 244.516 134.688 243.969 135.703C243.734 136.12 242.615 137.448 240.609 139.688C238.604 141.901 236.299 144.349 233.695 147.031C231.091 149.688 228.721 151.979 226.586 153.906H227.719ZM234.398 134.766C232.992 134.453 230.466 133.711 226.82 132.539C226.82 133.971 226.729 136.562 226.547 140.312C226.365 144.062 226.156 146.823 225.922 148.594L225.883 148.711L226.977 147.148C228.695 144.648 230.154 142.448 231.352 140.547C232.576 138.62 233.591 136.693 234.398 134.766ZM264.828 153.906C265.609 153.75 266.573 153.398 267.719 152.852C268.891 152.305 270.518 151.497 272.602 150.43C274.216 149.57 275.87 148.724 277.562 147.891L280.883 153.32C279.737 154.857 277.992 156.615 275.648 158.594C273.331 160.547 270.831 162.24 268.148 163.672C265.492 165.078 263.083 165.781 260.922 165.781C260.245 165.781 259.581 165.599 258.93 165.234C258.279 164.896 257.562 164.323 256.781 163.516C256.104 162.839 255.596 162.357 255.258 162.07C254.711 161.576 254.19 161.146 253.695 160.781C253.227 160.391 252.927 160.143 252.797 160.039C251.99 159.31 251.43 158.646 251.117 158.047C250.831 157.422 250.688 156.758 250.688 156.055C250.688 155.586 250.727 155.065 250.805 154.492C250.909 153.503 250.961 152.604 250.961 151.797C250.961 148.151 250.701 144.245 250.18 140.078C249.685 135.911 249.164 132.917 248.617 131.094C248.305 130.026 248.148 129.323 248.148 128.984C248.148 127.943 248.917 126.693 250.453 125.234C252.016 123.776 253.526 122.591 254.984 121.68C256.417 120.794 258.122 119.961 260.102 119.18C262.081 118.372 263.721 117.969 265.023 117.969C265.935 118.021 266.951 118.411 268.07 119.141C270.57 120.833 272.523 122.031 273.93 122.734C275.362 123.411 277.107 124.115 279.164 124.844L280.258 125.234C280.57 125.365 280.792 125.495 280.922 125.625C281.052 125.755 281.169 126.003 281.273 126.367C281.404 126.706 281.534 127.266 281.664 128.047C281.82 128.984 281.898 129.987 281.898 131.055C281.898 133.138 281.625 134.688 281.078 135.703C280.844 136.12 279.724 137.448 277.719 139.688C275.714 141.901 273.409 144.349 270.805 147.031C268.201 149.688 265.831 151.979 263.695 153.906H264.828ZM271.508 134.766C270.102 134.453 267.576 133.711 263.93 132.539C263.93 133.971 263.839 136.562 263.656 140.312C263.474 144.062 263.266 146.823 263.031 148.594L262.992 148.711L264.086 147.148C265.805 144.648 267.263 142.448 268.461 140.547C269.685 138.62 270.701 136.693 271.508 134.766ZM301.938 153.906C302.719 153.75 303.682 153.398 304.828 152.852C306 152.305 307.628 151.497 309.711 150.43C311.326 149.57 312.979 148.724 314.672 147.891L317.992 153.32C316.846 154.857 315.102 156.615 312.758 158.594C310.44 160.547 307.94 162.24 305.258 163.672C302.602 165.078 300.193 165.781 298.031 165.781C297.354 165.781 296.69 165.599 296.039 165.234C295.388 164.896 294.672 164.323 293.891 163.516C293.214 162.839 292.706 162.357 292.367 162.07C291.82 161.576 291.299 161.146 290.805 160.781C290.336 160.391 290.036 160.143 289.906 160.039C289.099 159.31 288.539 158.646 288.227 158.047C287.94 157.422 287.797 156.758 287.797 156.055C287.797 155.586 287.836 155.065 287.914 154.492C288.018 153.503 288.07 152.604 288.07 151.797C288.07 148.151 287.81 144.245 287.289 140.078C286.794 135.911 286.273 132.917 285.727 131.094C285.414 130.026 285.258 129.323 285.258 128.984C285.258 127.943 286.026 126.693 287.562 125.234C289.125 123.776 290.635 122.591 292.094 121.68C293.526 120.794 295.232 119.961 297.211 119.18C299.19 118.372 300.831 117.969 302.133 117.969C303.044 118.021 304.06 118.411 305.18 119.141C307.68 120.833 309.633 122.031 311.039 122.734C312.471 123.411 314.216 124.115 316.273 124.844L317.367 125.234C317.68 125.365 317.901 125.495 318.031 125.625C318.161 125.755 318.279 126.003 318.383 126.367C318.513 126.706 318.643 127.266 318.773 128.047C318.93 128.984 319.008 129.987 319.008 131.055C319.008 133.138 318.734 134.688 318.188 135.703C317.953 136.12 316.833 137.448 314.828 139.688C312.823 141.901 310.518 144.349 307.914 147.031C305.31 149.688 302.94 151.979 300.805 153.906H301.938ZM308.617 134.766C307.211 134.453 304.685 133.711 301.039 132.539C301.039 133.971 300.948 136.562 300.766 140.312C300.583 144.062 300.375 146.823 300.141 148.594L300.102 148.711L301.195 147.148C302.914 144.648 304.372 142.448 305.57 140.547C306.794 138.62 307.81 136.693 308.617 134.766Z" fill="black"/>
</svg>
