<svg width="406" height="271" viewBox="0 0 406 271" fill="none" xmlns="http://www.w3.org/2000/svg">
<path d="M199.8 0.212891L226.108 40.6496L270.215 8.37386L274.081 52.0943L332.508 31.8724L313.466 73.6032L379.167 67.8743L339.513 102.582L404.562 112.037L349.08 135.536L405.632 159.034L341.013 168.489L382.247 203.197L316.285 197.468L337.228 239.199L277.879 218.977L276.004 262.698L230.427 230.422L205.96 270.859L179.653 230.422L135.545 262.698L131.68 218.977L73.2516 239.199L92.2941 197.468L26.5932 203.197L66.2472 168.489L1.19767 159.034L56.6802 135.536L0.12793 112.037L64.747 102.582L23.5131 67.8743L89.4747 73.6032L68.5324 31.8724L127.881 52.0943L129.757 8.37386L175.333 40.6496L199.8 0.212891Z" fill="#FED510"/>
<path fill-rule="evenodd" clip-rule="evenodd" d="M199.8 0.212891L175.333 40.6496L129.757 8.37386L127.881 52.0943L68.5324 31.8724L89.4747 73.6032L23.5131 67.8743L64.747 102.582L0.12793 112.037L56.6802 135.536L1.19767 159.034L66.2472 168.489L26.5932 203.197L92.2941 197.468L73.2516 239.199L131.68 218.977L135.545 262.698L179.653 230.422L205.96 270.859L230.427 230.422L276.004 262.698L277.879 218.977L337.228 239.199L316.285 197.468L382.247 203.197L341.013 168.489L405.632 159.034L349.08 135.536L404.562 112.037L339.513 102.582L379.167 67.8743L313.466 73.6032L332.508 31.8724L274.081 52.0943L270.215 8.37386L226.108 40.6496L199.8 0.212891ZM225.86 42.0834L199.843 2.09344L175.646 42.0834L130.679 10.2389L128.824 53.4646L70.5049 33.5934L91.1595 74.7511L26.5518 69.1398L67.0809 103.254L3.8436 112.507L59.2647 135.536L4.89197 158.564L68.5505 167.817L29.5743 201.932L93.9267 196.32L75.1457 237.478L132.561 217.607L136.383 260.833L179.901 228.988L205.918 268.978L230.114 228.988L275.082 260.833L276.936 217.607L335.255 237.478L314.6 196.32L379.208 201.932L338.679 167.817L401.916 158.564L346.495 135.536L400.868 112.507L337.209 103.254L376.186 69.1398L311.833 74.7511L330.614 33.5934L273.2 53.4646L269.378 10.2389L225.86 42.0834Z" fill="black"/>
<path d="M120.304 151.366C119.757 152.772 118.625 154.647 116.906 156.991C115.213 159.335 113.351 161.392 111.32 163.163C109.315 164.908 107.531 165.78 105.968 165.78C104.38 165.78 102.557 165.259 100.5 164.218C98.4684 163.176 96.7105 161.861 95.2262 160.272C93.7678 158.684 93.0126 157.134 92.9605 155.624C92.9605 155.051 93.1298 154.062 93.4684 152.655C93.8069 151.223 94.484 148.879 95.4996 145.624L93.5465 131.64L89.7965 131.405C89.51 130.624 89.3017 129.713 89.1715 128.671C89.0413 127.629 88.9762 126.614 88.9762 125.624C88.9762 125.077 88.9892 124.7 89.0152 124.491L93.3902 122.968L95.773 108.788C96.1897 108.58 96.8017 108.41 97.609 108.28C98.4423 108.124 99.3407 108.046 100.304 108.046C101.632 108.046 102.948 108.176 104.25 108.437C105.552 108.697 106.684 109.088 107.648 109.608L107.218 120.585L115.89 118.827C116.958 120.65 117.492 122.629 117.492 124.765C117.492 126.041 117.349 127.174 117.062 128.163C116.802 129.127 116.424 130.272 115.929 131.601C112.961 131.835 109.927 132.017 106.828 132.147L106.906 152.812L115.343 145.858L120.304 151.366Z" fill="black"/>
<path d="M138.703 128.632C138.703 132.72 138.546 136.522 138.234 140.038C137.948 143.528 137.44 146.965 136.711 150.351L137.882 150.897C138.794 150.012 139.836 148.528 141.007 146.444C142.205 144.361 143.299 142.226 144.289 140.038C145.278 137.825 145.916 136.197 146.203 135.155C145.448 126.145 145.07 121.067 145.07 119.921C145.513 119.634 146.359 119.387 147.609 119.179C148.859 118.944 150.2 118.827 151.632 118.827C154.002 118.827 156.046 119.205 157.765 119.96C159.51 120.715 161.073 121.913 162.453 123.554V123.983C162.453 125.285 162.127 127.759 161.476 131.405C160.851 135.051 160.018 138.892 158.976 142.929C157.934 146.939 156.854 150.285 155.734 152.968L162.492 149.374L165.812 154.101C164.328 157.538 162.622 160.351 160.695 162.538C158.794 164.7 156.789 165.78 154.679 165.78C153.455 165.78 152.14 165.429 150.734 164.726C149.354 163.996 148.13 163.046 147.062 161.874C146.958 161.77 146.698 161.509 146.281 161.093C145.89 160.676 145.578 160.168 145.343 159.569C145.135 158.97 145.031 158.267 145.031 157.46C145.031 157.252 145.057 156.887 145.109 156.366C145.474 152.746 145.916 149.244 146.437 145.858L145.851 145.585C143.872 150.611 141.711 155.233 139.367 159.452C137.049 163.671 134.966 165.78 133.117 165.78C132.466 165.78 131.815 165.611 131.164 165.272C130.539 164.96 129.757 164.465 128.82 163.788L127.453 162.89C126.125 162.03 125.109 161.301 124.406 160.702C123.729 160.077 123.39 159.4 123.39 158.671L126.671 142.616L120.617 125.78C121.294 124.114 122.388 122.733 123.898 121.64C125.408 120.546 127.075 119.752 128.898 119.257C130.721 118.736 132.505 118.476 134.25 118.476C136.02 118.476 137.375 118.697 138.312 119.14C138.573 121.9 138.703 125.064 138.703 128.632Z" fill="black"/>
<path d="M181.906 143.71C182.036 143.085 182.205 142.147 182.414 140.897C182.648 139.621 182.83 138.606 182.961 137.851C183.664 133.502 184.328 129.817 184.953 126.796C185.604 123.749 186.346 121.301 187.179 119.452C188.82 119.088 190.487 118.905 192.179 118.905C194.549 118.905 196.737 119.231 198.742 119.882C200.773 120.533 202.427 121.301 203.703 122.187C203.937 123.827 204.054 125.546 204.054 127.343C204.054 130.285 203.807 133.306 203.312 136.405C202.843 139.478 202.296 142.278 201.671 144.804C199.718 145.897 197.661 146.444 195.5 146.444C194.198 146.444 192.739 146.249 191.125 145.858C191.151 144.947 191.164 142.785 191.164 139.374C191.164 136.874 191.151 135.155 191.125 134.218L189.211 133.905C188.247 136.744 186.815 141.835 184.914 149.179L183.546 154.296L190.695 153.358L192.921 158.593C191.385 161.015 189.523 162.825 187.336 164.022C185.148 165.194 182.778 165.78 180.226 165.78C178.768 165.78 177.479 165.65 176.359 165.39C175.239 165.129 174.289 164.634 173.507 163.905C173.065 163.515 172.544 162.916 171.945 162.108C171.372 161.301 170.851 160.403 170.382 159.413C169.94 158.397 169.718 157.434 169.718 156.522C169.718 155.95 169.809 155.429 169.992 154.96L173.117 147.226L166.125 123.476C167.14 122.017 168.546 120.897 170.343 120.116C172.14 119.309 174.054 118.905 176.086 118.905C178.221 118.905 180.109 119.309 181.75 120.116L181.476 143.632L181.906 143.71Z" fill="black"/>
<path d="M235.226 118.827C236.32 118.827 237.661 119.035 239.25 119.452C240.864 119.869 242.544 120.507 244.289 121.366C246.033 122.2 247.635 123.228 249.093 124.452C249.015 128.332 248.599 132.772 247.843 137.772C247.088 142.772 246.151 147.629 245.031 152.343C243.937 157.056 242.83 160.976 241.711 164.101C240.877 164.7 239.497 165.129 237.57 165.39C235.669 165.65 233.742 165.78 231.789 165.78C228.586 165.78 225.148 165.468 221.476 164.843C217.804 164.192 214.809 163.241 212.492 161.991C211.893 161.679 211.476 161.405 211.242 161.171C211.033 160.937 210.929 160.585 210.929 160.116C210.929 159.752 211.007 159.257 211.164 158.632L212.531 153.007L213.156 150.624H213.078L213.117 150.546C212.492 149.192 211.763 145.52 210.929 139.53C210.122 133.515 209.393 127.226 208.742 120.663C208.117 114.075 207.804 109.934 207.804 108.241C207.804 107.955 207.817 107.785 207.843 107.733C209.171 106.093 211.02 104.726 213.39 103.632C215.786 102.538 218.143 101.991 220.461 101.991C222.908 101.991 224.888 102.603 226.398 103.827C226.164 108.124 225.786 112.512 225.265 116.991C224.77 121.444 224.08 126.952 223.195 133.515C222.856 135.989 222.375 139.7 221.75 144.647L222.14 144.804L230.812 119.491C231.567 119.283 232.231 119.127 232.804 119.022C233.403 118.892 234.211 118.827 235.226 118.827ZM232.179 156.601C232.518 153.345 232.856 149.452 233.195 144.921C233.559 140.364 233.755 136.939 233.781 134.647L232.726 134.335C231.476 136.887 229.823 140.338 227.765 144.687C225.708 149.035 224.393 151.9 223.82 153.28C224.783 154.114 226.151 154.856 227.921 155.507C229.718 156.158 231.138 156.522 232.179 156.601Z" fill="black"/>
<path d="M289.836 126.444C290.07 127.59 290.226 128.801 290.304 130.077C290.408 131.327 290.461 133.085 290.461 135.351C290.461 138.996 290.135 143.15 289.484 147.812C288.859 152.447 288.182 156.093 287.453 158.749C287.01 159.296 286.151 159.973 284.875 160.78C283.599 161.588 282.323 162.317 281.046 162.968C279.328 163.827 277.843 164.478 276.593 164.921C275.343 165.364 274.093 165.65 272.843 165.78C271.073 165.624 268.989 165.233 266.593 164.608C264.198 163.983 261.958 163.241 259.875 162.382C257.817 161.496 256.333 160.598 255.421 159.687C254.614 154.53 253.989 150.077 253.546 146.327C253.13 142.577 252.921 138.931 252.921 135.39C252.921 132.134 253.156 128.905 253.625 125.702C254.354 124.791 255.838 123.775 258.078 122.655C260.317 121.509 262.7 120.494 265.226 119.608C267.752 118.697 269.692 118.15 271.046 117.968C273.208 118.176 275.539 118.697 278.039 119.53C280.539 120.364 282.843 121.392 284.953 122.616C287.088 123.84 288.716 125.116 289.836 126.444ZM267.14 132.421C266.828 135.546 266.671 138.684 266.671 141.835C266.671 146.002 266.854 149.921 267.218 153.593C269.354 154.999 271.515 155.937 273.703 156.405L275.851 154.921C276.059 152.759 276.164 149.869 276.164 146.249C276.164 142.16 275.942 137.994 275.5 133.749L269.484 131.288L267.14 132.421Z" fill="black"/>
<path d="M332.179 126.444C332.414 127.59 332.57 128.801 332.648 130.077C332.752 131.327 332.804 133.085 332.804 135.351C332.804 138.996 332.479 143.15 331.828 147.812C331.203 152.447 330.526 156.093 329.796 158.749C329.354 159.296 328.494 159.973 327.218 160.78C325.942 161.588 324.666 162.317 323.39 162.968C321.671 163.827 320.187 164.478 318.937 164.921C317.687 165.364 316.437 165.65 315.187 165.78C313.416 165.624 311.333 165.233 308.937 164.608C306.541 163.983 304.302 163.241 302.218 162.382C300.161 161.496 298.677 160.598 297.765 159.687C296.958 154.53 296.333 150.077 295.89 146.327C295.474 142.577 295.265 138.931 295.265 135.39C295.265 132.134 295.5 128.905 295.968 125.702C296.698 124.791 298.182 123.775 300.421 122.655C302.661 121.509 305.044 120.494 307.57 119.608C310.096 118.697 312.036 118.15 313.39 117.968C315.552 118.176 317.882 118.697 320.382 119.53C322.882 120.364 325.187 121.392 327.296 122.616C329.432 123.84 331.059 125.116 332.179 126.444ZM309.484 132.421C309.171 135.546 309.015 138.684 309.015 141.835C309.015 146.002 309.198 149.921 309.562 153.593C311.698 154.999 313.859 155.937 316.046 156.405L318.195 154.921C318.403 152.759 318.507 149.869 318.507 146.249C318.507 142.16 318.286 137.994 317.843 133.749L311.828 131.288L309.484 132.421Z" fill="black"/>
</svg>
